HIERARCHY
ROOT Hips
{
  OFFSET 4.78033 98.209 -74.6515
  CHANNELS 6 Xposition Yposition Zposition Zrotation Xrotation Yrotation
  JOINT ToSpine
  {
    OFFSET -2.69724 7.43032 -0.144315
    CHANNELS 3 Zrotation Xrotation Yrotation
    JOINT Spine
    {
      OFFSET -0.0310711 10.7595 1.96963
      CHANNELS 3 Zrotation Xrotation Yrotation
      JOINT Spine1
      {
        OFFSET 13.1342 3.43533 0.764692
        CHANNELS 3 Zrotation Xrotation Yrotation
        JOINT Neck
        {
          OFFSET 29.8703 7.82586 -0.130764
          CHANNELS 3 Zrotation Xrotation Yrotation
          JOINT Head
          {
            OFFSET 9.52751 0.295786 -0.907742
            CHANNELS 3 Zrotation Xrotation Yrotation
            End Site
            {
              OFFSET 16.4037 0.713936 2.7358
            }
          }
        }
        JOINT LeftShoulder
        {
          OFFSET 27.5574 4.95586 2.47156
          CHANNELS 3 Zrotation Xrotation Yrotation
          JOINT LeftArm
          {
            OFFSET 1.20734 -0.998971 20.1238
            CHANNELS 3 Zrotation Xrotation Yrotation
            JOINT LeftForeArm
            {
              OFFSET 26.8049 -0.0536703 -0.155908
              CHANNELS 3 Zrotation Xrotation Yrotation
              JOINT LeftHand
              {
                OFFSET 26.6817 0 0.320147
                CHANNELS 3 Zrotation Xrotation Yrotation
                End Site
                {
                  OFFSET 18.6119 0 0.382219
                }
              }
            }
          }
        }
        JOINT RightShoulder
        {
          OFFSET 27.5927 4.71444 -2.65209
          CHANNELS 3 Zrotation Xrotation Yrotation
          JOINT RightArm
          {
            OFFSET 2.83739 -1.17114 -18.7564
            CHANNELS 3 Zrotation Xrotation Yrotation
            JOINT RightForeArm
            {
              OFFSET 28.839 -0.0548439 1.22491
              CHANNELS 3 Zrotation Xrotation Yrotation
              JOINT RightHand
              {
                OFFSET 26.5114 0 -0.101894
                CHANNELS 3 Zrotation Xrotation Yrotation
                End Site
                {
                  OFFSET 18.2168 0 0
                }
              }
            }
          }
        }
      }
    }
  }
  JOINT LeftUpLeg
  {
    OFFSET -4.76168 -1.9167 -10.2353
    CHANNELS 3 Zrotation Xrotation Yrotation
    JOINT LeftLeg
    {
      OFFSET 2.55951 -42.0585 -8.02213
      CHANNELS 3 Zrotation Xrotation Yrotation
      JOINT LeftFoot
      {
        OFFSET 3.16357 -42.5282 -3.95426
        CHANNELS 3 Zrotation Xrotation Yrotation
        JOINT LeftToeBase
        {
          OFFSET 0.346054 -6.02161 12.8035
          CHANNELS 3 Zrotation Xrotation Yrotation
          End Site
          {
            OFFSET 0.134235 -1.35082 5.13018
          }
        }
      }
    }
  }
  JOINT RightUpLeg
  {
    OFFSET -4.94151 -1.41743 10.6446
    CHANNELS 3 Zrotation Xrotation Yrotation
    JOINT RightLeg
    {
      OFFSET -2.56294 -42.0364 -7.94377
      CHANNELS 3 Zrotation Xrotation Yrotation
      JOINT RightFoot
      {
        OFFSET -3.0952 -42.555 -4.02241
        CHANNELS 3 Zrotation Xrotation Yrotation
        JOINT RightToeBase
        {
          OFFSET -0.0828122 -6.13587 12.8035
          CHANNELS 3 Zrotation Xrotation Yrotation
          End Site
          {
            OFFSET -0.131328 -1.35082 5.13018
          }
        }
      }
    }
  }
}
MOTION
Frames:	18
Frame Time:	0.0333333
3.33612 98.3446 -76.0648 -15.3013 -68.6589 -108.029 -70.1915 0 88.8779 61.9021 70.1898 25.0054 4.11835 21.405 2.31208 -152.354 21.2267 179.173 -160.469 60.8081 -165.944 0.463562 -12.7134 -33.7461 -74.9666 48.2902 -85.6161 12.1637 23.3136 -29.3032 0.420957 0.000575414 0.35866 -1.87836 5.81644 46.7529 -76.5048 -35.2637 87.4025 4.86609 -16.8656 24.4776 0.58676 0.000331372 0.0646654 -52.9696 -0.905372 98.313 -0.784445 19.2942 -2.26354 2.22 -8.81063 -0.90145 -3.84708 6.2055 3.93209 -57.8324 -2.07028 79.8784 3.27636 12.4041 -2.70807 -15.9705 -5.03166 1.91723 0.344744 -6.10233 3.41277 
3.34268 98.2414 -76.0749 -15.226 -68.5829 -107.917 -70.1915 0 88.8779 61.3158 70.0006 25.672 4.47498 21.3348 2.22415 -152.936 21.0979 179.273 -160.886 60.6885 -166.214 0.525594 -12.4656 -33.5151 -74.7089 48.4682 -85.8943 12.2118 23.03 -29.4912 0.420957 0.000575414 0.35866 -1.91273 6.01027 46.2739 -76.7952 -35.6235 87.2771 5.24109 -17.3756 24.6253 0.58676 0.000331372 0.0646654 -52.9196 -0.821698 98.3038 -0.794893 19.2228 -2.19075 2.47127 -7.71618 -0.848619 -2.16107 3.49603 2.38528 -57.6761 -2.05281 79.8849 3.30135 12.5274 -2.75304 -16.2228 -4.67984 1.96358 0.517603 -7.22137 3.33824 
3.37116 98.4309 -76.0574 -15.2418 -68.515 -107.775 -70.1915 0 88.8779 61.1826 69.9397 26.016 4.56764 21.3479 2.21496 -152.713 21.0097 178.528 -159.218 60.5163 -168.056 0.514621 -12.5106 -33.5486 -73.3514 48.4351 -86.7111 11.7227 21.4121 -29.7649 0.420957 0.000575414 0.35866 -1.895 5.93535 46.3851 -76.7372 -35.4883 87.2097 5.58241 -17.9005 24.7595 0.58676 0.000331372 0.0646654 -53.0976 -0.706057 98.246 -0.817167 18.71 -2.26954 1.97639 -7.19218 -0.787464 -1.3194 2.12022 1.55927 -57.1756 -1.96982 79.7849 3.13089 13.5682 -1.76993 -10.9429 -5.50757 1.44756 0.214356 -3.28231 1.43126 
3.37339 98.3613 -76.0684 -15.5819 -68.5275 -108.128 -70.1915 0 88.8779 61.5228 70.0413 25.7986 4.49767 21.4383 2.06151 -152.527 21.0006 178.216 -158.78 60.4872 -168.455 0.520595 -12.497 -33.4159 -72.7846 48.4533 -86.983 11.5771 20.9222 -29.8688 0.420957 0.000575414 0.35866 -1.89865 5.89605 46.6516 -77.801 -35.0419 86.7538 5.32872 -18.7522 24.3735 0.58676 0.000331372 0.0646654 -53.1103 -0.787204 98.1713 -0.666483 18.77 -1.83846 2.04983 -7.52955 -0.812818 -1.38898 2.6283 0.813048 -57.3624 -1.91557 79.794 3.11671 13.2668 -1.34524 -10.86 -5.79289 1.46244 0.201425 -2.6685 0.736755 
3.39684 98.3637 -76.0058 -15.2813 -68.4777 -107.846 -70.1915 0 88.8779 60.6632 69.8706 26.5588 4.77044 21.4032 2.04077 -152.467 20.9939 178.086 -158.766 60.4892 -168.371 0.536212 -12.4342 -33.3519 -73.1525 48.4883 -86.7952 11.8137 21.3671 -29.9076 0.420957 0.000575414 0.35866 -1.89434 5.87341 46.7036 -77.5741 -35.0331 86.7045 5.65781 -18.7673 24.6119 0.58676 0.000331372 0.0646654 -53.0849 -0.822157 98.1792 -0.696358 18.7241 -2.17626 1.97663 -7.44582 -0.802813 -1.41162 2.4094 1.37192 -57.3232 -1.9661 79.7913 3.12553 13.2265 -1.51705 -11.2203 -5.92286 1.48484 0.162291 -2.74684 1.11739 
3.39572 98.362 -75.9933 -15.5143 -68.4768 -108.066 -70.1915 0 88.8779 61.188 69.9393 26.1472 4.6352 21.4308 1.91261 -152.418 20.9339 177.933 -158.57 60.4167 -168.637 0.570796 -12.2962 -33.183 -73.1534 48.5757 -86.8063 11.8872 21.3871 -29.9927 0.420957 0.000575414 0.35866 -1.90094 5.84904 46.9409 -75.0176 -35.0311 87.5488 5.7323 -16.6115 25.2098 0.58676 0.000331372 0.0646654 -53.1117 -0.760612 98.2153 -0.728736 18.7583 -1.91258 1.98515 -7.67505 -0.817296 -1.37736 2.68484 0.635938 -57.35 -1.94354 79.7763 3.1344 13.2594 -1.26627 -10.9686 -6.08374 1.46218 0.181259 -2.18912 0.493616 
3.43443 98.3583 -75.966 -15.9579 -68.5677 -108.435 -70.1915 0 88.8779 62.1452 70.0966 25.3466 4.41178 21.453 1.88009 -152.441 20.8177 178.053 -158.655 60.296 -168.649 0.590556 -12.2167 -33.0838 -73.0376 48.6817 -86.8547 11.9258 21.3787 -30.0506 0.420957 0.000575414 0.35866 -1.89686 5.8322 46.9663 -77.3443 -34.798 86.7965 5.45651 -18.4815 24.5342 0.58676 0.000331372 0.0646654 -53.179 -0.623565 98.2844 -0.765077 18.9669 -1.39013 2.2632 -8.05833 -0.857979 -1.47439 3.3142 -0.196198 -57.586 -1.90488 79.7332 3.18144 13.1273 -0.936963 -10.8637 -5.95552 1.45644 0.239171 -2.2381 0.124879 
3.46002 98.3532 -75.932 -15.9293 -68.5722 -108.36 -70.1915 0 88.8779 62.0583 70.0817 25.3725 4.44853 21.4096 2.00236 -152.507 20.8065 178.03 -158.459 60.2654 -168.984 0.580534 -12.2535 -33.1765 -73.2735 48.6863 -86.7335 12.1259 21.7877 -30.0617 0.420957 0.000575414 0.35866 -1.89047 5.88984 46.5539 -78.2736 -35.12 86.545 5.58601 -19.4685 24.4001 0.58676 0.000331372 0.0646654 -53.0786 -0.597018 98.2914 -0.754849 19.2338 -1.83159 2.23155 -7.97019 -0.850534 -1.46755 2.76372 0.885222 -57.6851 -1.91851 79.7476 3.17895 12.97 -1.42965 -10.9129 -5.98093 1.45979 0.0172546 -2.38122 1.78257 
3.49896 98.3191 -75.8937 -16.3647 -68.5859 -108.756 -70.1915 0 88.8779 62.6347 70.2347 24.8055 4.28057 21.4484 2.10357 -152.576 20.7602 177.917 -158.072 60.1947 -169.404 0.596798 -12.1771 -33.2246 -73.6724 48.7043 -86.4313 12.4162 22.1161 -30.2426 0.420957 0.000575414 0.35866 -1.88233 5.89238 46.4098 -77.6907 -35.2817 86.871 5.69418 -19.0691 24.574 0.58676 0.000331372 0.0646654 -53.0233 -0.590964 98.2596 -0.695098 19.5441 -2.01318 2.06068 -8.12888 -0.850199 -1.44776 2.47965 1.38421 -57.7833 -1.85791 79.7545 3.13424 12.9773 -0.840758 -10.7286 -5.87571 1.44704 0.202023 -2.69891 0.783787 
3.56784 98.3121 -75.8182 -16.3022 -68.5138 -108.687 -70.1915 0 88.8779 62.7066 70.2272 24.858 4.2332 21.4852 1.96757 -152.52 20.8188 177.816 -158.146 60.2683 -169.23 0.574228 -12.2835 -33.1539 -74.0684 48.8044 -86.078 12.3592 22.0341 -30.2153 0.420957 0.000575414 0.35866 -1.92117 5.96531 46.6425 -76.8245 -35.0956 87.2306 5.65612 -18.4269 24.7031 0.58676 0.000331372 0.0646654 -52.8579 -0.605369 98.2467 -0.714033 19.7951 -1.96126 1.91167 -8.34403 -0.855173 -1.41116 2.39793 1.39096 -57.8055 -1.9065 79.6989 3.15931 12.903 -0.314755 -10.4946 -5.81276 1.42949 0.333612 -2.70356 -0.140113 
3.67864 98.2877 -75.771 -16.2 -68.3931 -108.655 -70.1915 0 88.8779 62.7673 70.2749 24.7194 4.02815 21.5067 2.06857 -152.548 20.903 177.794 -158.339 60.3663 -169.092 0.565498 -12.3176 -33.2079 -74.318 48.8135 -85.9019 12.5213 22.3827 -30.2131 0.420957 0.000575414 0.35866 -1.90717 5.92514 46.6328 -76.3223 -35.0937 87.4061 5.77944 -18.0939 24.8741 0.58676 0.000331372 0.0646654 -52.6431 -0.684393 98.2493 -0.820623 20.0394 -1.97727 1.89754 -8.46696 -0.862105 -1.41545 2.29053 1.63848 -57.5717 -2.11425 79.6206 3.18565 13.1564 -0.523248 -10.3909 -6.03886 1.41865 0.193328 -2.57974 0.739846 
3.76269 98.2557 -75.6868 -16.32 -68.4312 -108.836 -70.1915 0 88.8779 63.0728 70.3471 24.0291 3.87336 21.3732 2.56105 -152.862 20.8053 178.17 -158.806 60.2831 -168.848 0.603057 -12.1431 -33.3012 -74.4695 48.8379 -85.8641 12.6663 22.6395 -30.2491 0.420957 0.000575414 0.35866 -1.95032 6.09281 46.4351 -75.0423 -35.2123 88.0221 5.6652 -16.9789 25.068 0.58676 0.000331372 0.0646654 -52.679 -0.784537 98.2376 -0.862859 20.1533 -1.64886 2.16747 -8.49029 -0.878297 -1.2848 2.27247 1.08552 -57.5331 -2.23261 79.5778 3.09214 13.4389 -0.261726 -9.95301 -6.30228 1.38184 0.219307 -2.27266 0.298437 
3.95419 98.2517 -75.6235 -15.892 -68.2551 -108.485 -70.1915 0 88.8779 62.8762 70.3589 24.0427 3.64653 21.3487 2.81321 -152.795 20.8675 178.239 -159.09 60.3672 -168.438 0.567801 -12.2985 -33.3092 -74.7004 48.9335 -85.7462 12.2287 22.2524 -29.9131 0.420957 0.000575414 0.35866 -1.89364 5.95319 46.2697 -75.2499 -35.1937 88.1606 5.71056 -17.4999 24.9821 0.58676 0.000331372 0.0646654 -52.4473 -1.01424 98.1546 -0.861397 20.2321 -1.80963 2.07152 -8.4911 -0.873173 -1.31196 2.05601 1.67168 -57.2461 -2.56642 79.3744 3.24735 13.6927 0.302346 -10.0374 -6.25346 1.3892 0.369157 -2.52972 -0.544693 
4.09999 98.256 -75.4397 -16.3955 -68.149 -108.907 -70.1915 0 88.8779 63.207 70.4326 24.1726 3.61587 21.5184 2.40253 -152.578 20.8296 177.825 -158.405 60.2997 -168.982 0.538619 -12.4273 -33.3111 -75.2033 49.0192 -85.2159 12.4669 22.4616 -30.0921 0.420957 0.000575414 0.35866 -1.89306 5.91921 46.4393 -74.6908 -35.1764 88.2255 6.08097 -17.3686 25.2964 0.58676 0.000331372 0.0646654 -52.4143 -1.01995 98.1756 -0.844219 20.4429 -1.90033 2.07102 -8.67918 -0.884804 -1.345 1.83283 2.3069 -57.4998 -2.60288 79.3022 3.38121 13.2461 0.292231 -10.1848 -5.97889 1.40303 0.363223 -2.95624 -0.128649 
4.2752 98.2489 -75.2623 -16.8348 -68.1674 -109.283 -70.1915 0 88.8779 63.8477 70.5696 23.8024 3.52451 21.6436 2.14197 -152.486 20.8566 177.477 -157.927 60.304 -169.452 0.553643 -12.3689 -33.2225 -74.4533 49.002 -85.83 12.485 22.5563 -30.0616 0.420957 0.000575414 0.35866 -1.91442 5.9403 46.6678 -76.2928 -34.801 87.5501 5.66554 -18.0602 24.7962 0.58676 0.000331372 0.0646654 -52.5103 -1.0193 98.2565 -0.891275 20.6524 -2.08328 2.18936 -8.48815 -0.879376 -1.08308 1.05475 2.83218 -57.7376 -2.53363 79.4313 3.21238 13.0757 0.140998 -9.86245 -6.08931 1.37689 0.240905 -2.74859 0.552439 
4.46183 98.2385 -74.9889 -16.3403 -68.1937 -108.824 -70.1915 0 88.8779 63.2137 70.3739 24.3801 3.82965 21.5801 1.96119 -152.647 21.0067 177.371 -158.305 60.4791 -169.319 0.601786 -12.1662 -33.0883 -72.5683 48.7945 -87.1564 11.8375 21.187 -30.0609 0.420957 0.000575414 0.35866 -1.91522 5.92495 46.762 -76.3561 -34.7404 87.4748 5.98714 -18.5669 24.9243 0.58676 0.000331372 0.0646654 -52.5734 -1.10294 98.3726 -1.08317 20.7809 -2.52828 2.36082 -8.55205 -0.892444 -1.09095 0.790799 3.48787 -57.8932 -2.76151 79.3485 3.18585 13.0488 0.0642254 -9.87634 -6.09194 1.37814 0.245341 -3.19511 0.944602 
4.63965 98.233 -74.7624 -16.2565 -68.1402 -108.852 -70.1915 0 88.8779 62.7331 70.4014 24.5067 3.76888 21.5794 2.24003 -152.469 21.0102 177.251 -158.306 60.4936 -169.146 0.573422 -12.2859 -33.1673 -70.9979 48.652 -87.9653 11.6847 20.3589 -30.4371 0.420957 0.000575414 0.35866 -1.91536 5.92492 46.7643 -73.6408 -34.9211 88.3128 5.91573 -15.865 25.5908 0.58676 0.000331372 0.0646654 -52.6086 -1.4142 98.2665 -1.00176 20.8316 -2.13292 2.45052 -8.88412 -0.916853 -1.12777 1.17983 2.75882 -57.8806 -2.95301 79.3619 3.02615 13.2061 0.0794771 -9.87075 -6.2744 1.37624 0.256102 -3.16283 0.832616 
4.93193 98.1858 -74.5164 -15.979 -68.0955 -108.571 -70.1915 0 88.8779 62.6851 70.4411 24.3502 3.56716 21.5385 2.55699 -152.709 20.9581 177.233 -158.483 60.446 -169.242 0.535171 -12.4558 -33.1704 -71.8168 48.913 -87.2463 11.9059 20.7494 -30.4686 0.420957 0.000575414 0.35866 -1.90368 5.96966 46.3427 -76.5756 -34.9965 87.2109 5.66946 -18.313 24.739 0.58676 0.000331372 0.0646654 -52.5771 -1.64403 98.1902 -0.980189 21.0073 -1.65874 2.36076 -9.3204 -0.937843 -1.09845 1.39356 2.13996 -57.8548 -3.12022 79.3608 2.89415 13.3999 0.231071 -9.68825 -6.29809 1.36225 0.369937 -3.65489 0.442717 
